<?xml version="1.0" encoding="utf-8"?>
<!-- Generator: Adobe Illustrator 25.2.1, SVG Export Plug-In . SVG Version: 6.00 Build 0)  -->
<svg version="1.1" id="Layer_1" xmlns="http://www.w3.org/2000/svg" xmlns:xlink="http://www.w3.org/1999/xlink" x="0px" y="0px"
	 viewBox="0 0 64 64" style="enable-background:new 0 0 64 64;" xml:space="preserve">
<style type="text/css">
	.st0{fill:#37776A;}
	.st1{fill:#FFFFFF;}
</style>
<path class="st0" d="M64,64H0V0h64V64z"/>
<path class="st1" d="M38.8,52.1V26.7c2.3-0.2,4.1-0.2,5.7-0.2c2.4,0,4.4,0.6,6,1.9c1.6,1.2,2.4,3,2.4,5.3c0,1.5-0.5,3-1.4,4.3
	c-0.9,1.3-1.9,2.4-3,3.2c0.9,1.2,2,2.7,3.3,4.3c1.3,1.7,2.1,2.7,2.5,3.2c1.4,1.5,3.1,2.4,4.9,2.6l0,1.1c-1.4,0-2.6-0.2-3.5-0.7
	c-0.9-0.4-1.8-1.1-2.6-1.9c-0.8-0.9-2.9-3.5-6.1-8c-2.3,0-4.4-0.1-6.3-0.2v10.5H38.8z M45.8,40.4c1,0,2.2-0.7,3.3-2.1
	c1.2-1.4,1.8-3,1.8-4.8c0-1.8-0.6-3.2-1.8-4.1c-1.2-0.9-2.8-1.4-4.9-1.4c-1.1,0-2.3,0-3.7,0.1v12.1C42.4,40.4,44.2,40.4,45.8,40.4z
	 M19.4,36h-1l-7.4-18c-0.4-1-0.8-1.9-1-2.6L9.6,18L6.6,37.3H4.9l4.2-25.7h1L18,30.5c0.4,0.9,0.7,1.7,1,2.5c0.1-0.3,0.4-1.1,1.1-2.5
	L29,11.6h1l3.9,25.7H32L29.3,18c-0.2-1.2-0.3-2.1-0.3-2.7c0,0-0.1,0.1-0.2,0.3c-0.1,0.2-0.2,0.5-0.4,1C28.2,17,28,17.5,27.8,18
	L19.4,36z"/>
</svg>
